<svg t="1618197564591" class="icon" viewBox="0 0 1024 1024" version="1.1" xmlns="http://www.w3.org/2000/svg" p-id="3833" width="48" height="48"><path d="M342.6 717.9c-10 0-19.6-3.9-26.9-11.2-9.3-9.3-13.1-22.5-10.2-35.3l39.9-176.1L754.1 86.6c30.2-30.2 79.3-30.2 109.5 0l72.2 72.2c30.2 30.2 30.2 79.3 0 109.5L527.1 677.1 351 716.9c-2.7 0.6-5.6 1-8.4 1z m53.9-194.5L366.4 656 499 626l397.2-397.2c8.4-8.4 8.4-21.9 0-30.3L824 126.2c-8.4-8.4-21.9-8.4-30.3 0L396.5 523.4z" fill="" p-id="3834"></path><path d="M351.12555 529.111684l39.609036-39.586921 142.088768 142.168148-39.609036 39.58692z" fill="" p-id="3835"></path><path d="M745.5 958.3H210.4c-81 0-146.6-65.6-146.6-146.6V276.6c0-81 65.6-146.6 146.6-146.6h329c15.5 0 28 12.5 28 28s-12.5 28-28 28h-329c-50 0-90.6 40.6-90.6 90.6v535.1c0 50 40.6 90.6 90.6 90.6h535.1c50 0 90.6-40.6 90.6-90.6v-330c0-15.5 12.5-28 28-28s28 12.5 28 28v330c0 81-65.6 146.6-146.6 146.6z" fill="" p-id="3836"></path></svg>