<svg t="1614234007324" class="icon" viewBox="0 0 1024 1024" version="1.1" xmlns="http://www.w3.org/2000/svg" p-id="4173" width="128" height="128"><path d="M845.118 869.956l-660.194 0.015c-15.799-0.015-30.274-14.534-30.31-30.311v-187.151c0-30.4 15.266-46.309 31.295-31.068l89.284 70.273c11.995 10.272 30.022 24.244 40.057 12.062l102.33-124.249c10.035-12.181 28.136-29.379 40.227-19.211l88.055 76.665c12.086 10.154 37.112 27.884 46.947 15.527l219.098-264.047c29.594-33.783 62.599-25.856 62.599 15.532 0 30.844 0 435.665 0 435.665-0.001 15.776-13.596 30.311-29.387 30.296zM588.176 545.666c-8.11 10.389-20.085 17.019-33.182 18.397-13.121 1.554-26.197-2.648-36.269-11.115l-99.325-83.651-99.761 131.678c-7.971 10.493-19.84 17.331-32.924 18.887-1.901 0.22-3.812 0.339-5.721 0.339-11.122 0-21.986-3.849-30.689-10.983l-87.063-71.234c-20.728-16.947-23.784-47.509-6.831-68.238 16.94-20.757 47.495-23.791 68.215-6.831l48.129 39.369 100.184-132.256c8.035-10.613 20.054-17.436 33.257-18.915 13.297-1.45 26.449 2.56 36.617 11.085l99.865 84.119 129.030-161.842-35.958-29.868c-25.515-21.187-19.848-44.142 12.595-51.001l187.002-39.554c32.437-6.86 42.471 9.057 22.297 35.388l-269.47 346.223z" p-id="4174"></path></svg>