<svg t="1614593301648" class="icon" viewBox="0 0 1024 1024" version="1.1" xmlns="http://www.w3.org/2000/svg" p-id="2345" width="128" height="128"><path d="M826.182 884.364H197.818c-69.818 0-128-58.182-128-128 0-23.273 6.982-46.546 18.618-65.164l314.182-528.29c23.273-39.565 65.164-62.837 111.71-62.837 23.272 0 46.545 6.982 65.163 18.618 18.618 11.636 34.909 25.6 44.218 44.218l314.182 525.964c37.236 60.509 16.29 139.636-44.218 176.872-20.946 11.637-44.218 18.619-67.491 18.619zM512 148.945c-27.927 0-53.527 13.964-69.818 39.564L130.327 714.473c-6.982 11.636-11.636 25.6-11.636 41.89 0 44.219 34.909 79.128 79.127 79.128h628.364c13.963 0 27.927-4.655 41.89-11.636 37.237-23.273 51.2-72.146 27.928-109.382L581.818 188.509c-6.982-11.636-16.29-20.945-27.927-27.927-11.636-6.982-25.6-11.637-41.891-11.637z m23.273 400.291V381.673c0-13.964-11.637-23.273-23.273-23.273s-23.273 11.636-23.273 23.273v167.563c0 13.964 11.637 23.273 23.273 23.273s23.273-11.636 23.273-23.273zM512 702.836c18.618 0 32.582-13.963 32.582-34.909S530.618 633.018 512 633.018s-32.582 13.964-32.582 34.91 13.964 34.908 32.582 34.908z" p-id="2346"></path></svg>